<?xml version="1.0" encoding="utf-8"?>
<!-- Generator: Adobe Illustrator 25.4.1, SVG Export Plug-In . SVG Version: 6.00 Build 0)  -->
<svg version="1.1" id="Layer_1" xmlns="http://www.w3.org/2000/svg" xmlns:xlink="http://www.w3.org/1999/xlink" x="0px" y="0px"
	 viewBox="0 0 16 16" style="enable-background:new 0 0 16 16;" xml:space="preserve">
<style type="text/css">
	.st0{fill:#FFFFFF;}
</style>
<path class="st0" d="M4,4.2h7.6v7.4H4V4.2z M3.6,11.9h8.3V3.8H3.6V11.9z M9.2,7.1C9,7.1,8.9,7.3,8.9,7.4c0,0.1,0.1,0.2,0.4,0.4
	C9.8,8.1,10,8.3,10,8.7c0,0.6-0.4,0.9-1,0.9c-0.3,0-0.6-0.1-0.7-0.1c0,0,0,0,0-0.1V8.8c0,0,0,0,0,0C8.5,8.9,8.8,9,9,9
	c0.3,0,0.4-0.1,0.4-0.3c0-0.1-0.1-0.2-0.4-0.4C8.5,8.1,8.3,7.8,8.3,7.4c0-0.4,0.3-0.8,1-0.8c0.3,0,0.5,0,0.6,0.1c0,0,0,0,0,0.1v0.5
	c0,0,0,0-0.1,0C9.7,7.2,9.5,7.1,9.2,7.1z M6.3,7.6c0.1,0,0.1,0,0.3,0c0.4,0,0.8-0.1,0.8-0.7c0-0.4-0.3-0.7-0.7-0.7
	c-0.1,0-0.3,0-0.3,0V7.6z M5.7,5.7C5.7,5.7,5.7,5.7,5.7,5.7c0.3-0.1,0.6-0.1,1-0.1c1,0,1.3,0.5,1.3,1.2c0,0.9-0.6,1.3-1.4,1.3
	c-0.1,0-0.2,0-0.3,0v1.3c0,0,0,0,0,0H5.7c0,0,0,0,0,0L5.7,5.7L5.7,5.7z"/>
</svg>
