<?xml version="1.0" encoding="utf-8"?>
<!-- Generator: Adobe Illustrator 25.4.1, SVG Export Plug-In . SVG Version: 6.00 Build 0)  -->
<svg version="1.1" id="Layer_1" xmlns="http://www.w3.org/2000/svg" xmlns:xlink="http://www.w3.org/1999/xlink" x="0px" y="0px"
	 viewBox="0 0 24 24" style="enable-background:new 0 0 24 24;" xml:space="preserve">
<style type="text/css">
	.st0{fill:#FFFFFF;}
</style>
<path class="st0" d="M8.7,10.5H8.1l-0.4,1.9h0.6c0.4,0,0.7-0.1,0.9-0.2c0.2-0.2,0.3-0.4,0.4-0.8c0.1-0.3,0-0.6-0.1-0.7
	C9.4,10.5,9.1,10.5,8.7,10.5z M12.3,7.2c-4.8,0-8.7,2-8.7,4.6s3.9,4.6,8.7,4.6s8.7-2,8.7-4.6S17.1,7.2,12.3,7.2z M10,12.6
	c-0.2,0.2-0.4,0.3-0.7,0.4c-0.2,0.1-0.6,0.1-0.9,0.1H7.6l-0.2,1.2h-1l0.9-4.6h1.9c0.6,0,1,0.2,1.3,0.5c0.3,0.3,0.3,0.7,0.2,1.3
	c0,0.2-0.1,0.4-0.2,0.6C10.3,12.3,10.2,12.4,10,12.6z M12.9,13.1l0.4-2c0-0.2,0-0.4,0-0.5c-0.1-0.1-0.2-0.1-0.5-0.1H12l-0.5,2.6h-1
	l0.9-4.6h1l-0.2,1.2H13c0.6,0,0.9,0.1,1.1,0.3c0.2,0.2,0.3,0.5,0.2,0.9l-0.4,2.1H12.9z M18.4,11.5c0,0.2-0.1,0.4-0.2,0.6
	c-0.1,0.2-0.2,0.4-0.4,0.5c-0.2,0.2-0.4,0.3-0.7,0.4c-0.2,0.1-0.6,0.1-0.9,0.1h-0.9l-0.2,1.2h-1L15,9.7h1.9c0.6,0,1,0.2,1.3,0.5
	C18.4,10.5,18.5,10.9,18.4,11.5z M16.5,10.5h-0.7l-0.4,1.9h0.6c0.4,0,0.7-0.1,0.9-0.2c0.2-0.2,0.3-0.4,0.4-0.8
	c0.1-0.3,0-0.6-0.1-0.7C17.1,10.5,16.9,10.5,16.5,10.5z"/>
</svg>
