<?xml version="1.0" encoding="utf-8"?>
<!-- Generator: Adobe Illustrator 25.4.1, SVG Export Plug-In . SVG Version: 6.00 Build 0)  -->
<svg version="1.1" id="Layer_1" xmlns="http://www.w3.org/2000/svg" xmlns:xlink="http://www.w3.org/1999/xlink" x="0px" y="0px"
	 viewBox="0 0 24 24" style="enable-background:new 0 0 24 24;" xml:space="preserve">
<style type="text/css">
	.st0{fill:#FFFFFF;}
</style>
<path class="st0" d="M12.5,8.4c-1.6,0-2.6,0.8-3,2.4c0.6-0.8,1.3-1.1,2.1-0.9c0.4,0.1,0.8,0.4,1.1,0.8c0.6,0.6,1.2,1.3,2.7,1.3
	c1.6,0,2.6-0.8,3-2.4c-0.6,0.8-1.3,1.1-2.1,0.9c-0.5-0.1-0.8-0.4-1.1-0.8C14.6,9.1,14,8.4,12.5,8.4z M9.5,12c-1.6,0-2.6,0.8-3,2.4
	c0.6-0.8,1.3-1.1,2.1-0.9c0.4,0.1,0.8,0.4,1.1,0.8c0.6,0.6,1.2,1.3,2.7,1.3c1.6,0,2.6-0.8,3-2.4c-0.6,0.8-1.3,1.1-2.1,0.9
	c-0.4-0.1-0.8-0.4-1.1-0.8C11.6,12.7,11,12,9.5,12z"/>
</svg>
